<svg width="36" height="28" viewBox="0 0 36 28" fill="none" xmlns="http://www.w3.org/2000/svg">
<g clip-path="url(#clip0_6408_30601)">
<path d="M24.116 10.5414C24.4685 10.189 24.6665 9.71103 24.6666 9.21262C24.6666 8.71421 24.4687 8.23619 24.1163 7.88372C23.7639 7.53124 23.286 7.33319 22.7876 7.33313C22.2892 7.33307 21.8111 7.531 21.4587 7.88338L12.5613 16.7827C12.4065 16.9371 12.2921 17.1271 12.228 17.3361L11.3473 20.2374C11.3301 20.295 11.3288 20.3563 11.3436 20.4146C11.3583 20.473 11.3886 20.5262 11.4312 20.5687C11.4738 20.6112 11.5271 20.6414 11.5854 20.6561C11.6438 20.6708 11.705 20.6694 11.7627 20.6521L14.6647 19.7721C14.8734 19.7086 15.0634 19.5948 15.218 19.4407L24.116 10.5414Z" stroke="#6B7280" stroke-width="2" stroke-linecap="round" stroke-linejoin="round"/>
<path d="M20 9.33337L22.6667 12" stroke="#6B7280" stroke-width="2" stroke-linecap="round" stroke-linejoin="round"/>
</g>
<defs>
<clipPath id="clip0_6408_30601">
<rect width="16" height="16" fill="white" transform="translate(10 6)"/>
</clipPath>
</defs>
</svg>
