<svg width="17" height="14" viewBox="0 0 17 14" fill="none" xmlns="http://www.w3.org/2000/svg">
<path d="M6.25 8.26316C6.67624 8.26316 7.08502 8.0968 7.38642 7.80069C7.68782 7.50458 7.85714 7.10297 7.85714 6.68421C7.85714 5.81263 7.53571 5.42105 7.21429 4.78947C6.52514 3.436 7.07029 2.22905 8.5 1C8.82143 2.57895 9.78571 4.09474 11.0714 5.10526C12.3571 6.11579 13 7.31579 13 8.57895C13 9.15953 12.8836 9.73442 12.6575 10.2708C12.4313 10.8072 12.0998 11.2946 11.682 11.7051C11.2641 12.1156 10.768 12.4413 10.2221 12.6635C9.67611 12.8856 9.09095 13 8.5 13C7.90905 13 7.32389 12.8856 6.77792 12.6635C6.23196 12.4413 5.73588 12.1156 5.31802 11.7051C4.90016 11.2946 4.56869 10.8072 4.34254 10.2708C4.1164 9.73442 4 9.15953 4 8.57895C4 7.85074 4.27836 7.13011 4.64286 6.68421C4.64286 7.10297 4.81218 7.50458 5.11358 7.80069C5.41498 8.0968 5.82376 8.26316 6.25 8.26316Z" stroke="#DC2626" stroke-width="2" stroke-linecap="round" stroke-linejoin="round"/>
</svg>
