<svg width="116" height="27" viewBox="0 0 116 27" fill="none" xmlns="http://www.w3.org/2000/svg">
<path d="M21 10.656V19C21 19.5304 20.7893 20.0391 20.4142 20.4142C20.0391 20.7893 19.5304 21 19 21H5C4.46957 21 3.96086 20.7893 3.58579 20.4142C3.21071 20.0391 3 19.5304 3 19V5C3 4.46957 3.21071 3.96086 3.58579 3.58579C3.96086 3.21071 4.46957 3 5 3H17.344" stroke="#4F46E5" stroke-width="2" stroke-linecap="round" stroke-linejoin="round"/>
<path d="M9 11L12 14L22 4" stroke="#4F46E5" stroke-width="2" stroke-linecap="round" stroke-linejoin="round"/>
<path d="M41.216 21.408C40.512 21.408 39.768 21.296 38.984 21.072C38.2 20.848 37.432 20.512 36.68 20.064C35.928 19.616 35.24 19.048 34.616 18.36C34.008 17.656 33.52 16.84 33.152 15.912C32.8 14.968 32.624 13.896 32.624 12.696C32.624 11.544 32.8 10.52 33.152 9.624C33.52 8.712 34.008 7.92 34.616 7.248C35.224 6.576 35.904 6.024 36.656 5.592C37.408 5.144 38.184 4.816 38.984 4.608C39.784 4.384 40.544 4.272 41.264 4.272C42.08 4.272 42.792 4.368 43.4 4.56C44.008 4.752 44.504 4.952 44.888 5.16C45.272 5.352 45.512 5.488 45.608 5.568C45.896 5.744 46.168 5.944 46.424 6.168C46.68 6.392 46.816 6.688 46.832 7.056C46.832 7.248 46.792 7.44 46.712 7.632C46.648 7.808 46.544 8 46.4 8.208C46.144 8.576 45.896 8.848 45.656 9.024C45.432 9.184 45.2 9.264 44.96 9.264C44.768 9.264 44.584 9.216 44.408 9.12C44.248 9.024 44.04 8.896 43.784 8.736C43.672 8.656 43.512 8.56 43.304 8.448C43.096 8.32 42.816 8.208 42.464 8.112C42.112 8 41.664 7.944 41.12 7.944C40.56 7.944 39.992 8.048 39.416 8.256C38.856 8.448 38.336 8.744 37.856 9.144C37.376 9.544 36.992 10.056 36.704 10.68C36.416 11.288 36.272 12 36.272 12.816C36.272 13.664 36.416 14.392 36.704 15C37.008 15.608 37.4 16.112 37.88 16.512C38.36 16.912 38.88 17.216 39.44 17.424C40.016 17.616 40.576 17.712 41.12 17.712C41.6 17.712 42.008 17.664 42.344 17.568C42.696 17.472 42.992 17.36 43.232 17.232C43.488 17.088 43.704 16.96 43.88 16.848C44.056 16.736 44.232 16.632 44.408 16.536C44.6 16.44 44.792 16.392 44.984 16.392C45.208 16.392 45.432 16.48 45.656 16.656C45.896 16.832 46.136 17.112 46.376 17.496C46.52 17.704 46.632 17.912 46.712 18.12C46.792 18.312 46.824 18.504 46.808 18.696C46.808 19.032 46.68 19.312 46.424 19.536C46.168 19.744 45.896 19.936 45.608 20.112C45.48 20.176 45.232 20.32 44.864 20.544C44.496 20.752 44.008 20.944 43.4 21.12C42.792 21.312 42.064 21.408 41.216 21.408ZM50.1099 21.216C49.5339 21.216 49.1179 21.136 48.8619 20.976C48.6059 20.8 48.4459 20.576 48.3819 20.304C48.3339 20.016 48.3099 19.712 48.3099 19.392V5.568C48.3099 5.248 48.3419 4.952 48.4059 4.68C48.4699 4.408 48.6299 4.192 48.8859 4.032C49.1419 3.856 49.5579 3.768 50.1339 3.768C50.7259 3.768 51.1419 3.856 51.3819 4.032C51.6379 4.208 51.7899 4.432 51.8379 4.704C51.9019 4.976 51.9339 5.272 51.9339 5.592V10.488C52.2219 10.184 52.5899 9.896 53.0379 9.624C53.5019 9.352 54.0459 9.216 54.6699 9.216C55.6619 9.216 56.5499 9.472 57.3339 9.984C58.1339 10.48 58.7659 11.168 59.2299 12.048C59.7099 12.928 59.9499 13.936 59.9499 15.072V19.416C59.9499 19.736 59.9179 20.032 59.8539 20.304C59.7899 20.576 59.6379 20.8 59.3979 20.976C59.1579 21.136 58.7339 21.216 58.1259 21.216C57.5659 21.216 57.1499 21.136 56.8779 20.976C56.6219 20.8 56.4619 20.576 56.3979 20.304C56.3499 20.016 56.3259 19.712 56.3259 19.392V15.048C56.3259 14.584 56.2459 14.192 56.0859 13.872C55.9259 13.536 55.6859 13.272 55.3659 13.08C55.0619 12.888 54.6859 12.792 54.2379 12.792C53.6459 12.792 53.1259 12.976 52.6779 13.344C52.2459 13.696 51.9979 14.128 51.9339 14.64V19.416C51.9339 19.736 51.9019 20.032 51.8379 20.304C51.7739 20.576 51.6139 20.8 51.3579 20.976C51.1179 21.136 50.7019 21.216 50.1099 21.216ZM67.4081 21.408C66.6561 21.408 65.9041 21.264 65.1521 20.976C64.4161 20.672 63.7441 20.248 63.1361 19.704C62.5281 19.16 62.0481 18.512 61.6961 17.76C61.3441 16.992 61.1681 16.144 61.1681 15.216C61.1681 14.352 61.3281 13.552 61.6481 12.816C61.9681 12.064 62.4161 11.4 62.9921 10.824C63.5681 10.248 64.2241 9.8 64.9601 9.48C65.7121 9.144 66.5121 8.976 67.3601 8.976C68.5121 8.976 69.5521 9.256 70.4801 9.816C71.4241 10.36 72.1761 11.104 72.7361 12.048C73.2961 12.992 73.5761 14.04 73.5761 15.192C73.5761 16.168 73.3921 17.04 73.0241 17.808C72.6721 18.56 72.1921 19.208 71.5841 19.752C70.9921 20.296 70.3281 20.712 69.5921 21C68.8721 21.272 68.1441 21.408 67.4081 21.408ZM67.3601 17.784C67.7441 17.784 68.1361 17.688 68.5361 17.496C68.9361 17.304 69.2721 17.016 69.5441 16.632C69.8161 16.248 69.9521 15.76 69.9521 15.168C69.9521 14.656 69.8401 14.208 69.6161 13.824C69.3921 13.44 69.0801 13.144 68.6801 12.936C68.2961 12.712 67.8481 12.6 67.3361 12.6C66.8561 12.6 66.4241 12.712 66.0401 12.936C65.6721 13.16 65.3681 13.472 65.1281 13.872C64.9041 14.256 64.7921 14.696 64.7921 15.192C64.7921 15.768 64.9201 16.256 65.1761 16.656C65.4481 17.04 65.7841 17.328 66.1841 17.52C66.5841 17.696 66.9761 17.784 67.3601 17.784ZM76.8543 21.216C76.2623 21.216 75.8383 21.136 75.5823 20.976C75.3423 20.8 75.1903 20.568 75.1263 20.28C75.0783 19.992 75.0543 19.696 75.0543 19.392V11.016C75.0543 10.696 75.0863 10.4 75.1503 10.128C75.2143 9.856 75.3663 9.64 75.6063 9.48C75.8623 9.304 76.2863 9.216 76.8783 9.216C77.4383 9.216 77.8383 9.296 78.0783 9.456C78.3343 9.6 78.4943 9.776 78.5583 9.984C78.6223 10.176 78.6543 10.344 78.6543 10.488L78.3663 10.632C78.3983 10.568 78.4783 10.456 78.6063 10.296C78.7503 10.12 78.9423 9.944 79.1823 9.768C79.4223 9.576 79.7103 9.416 80.0463 9.288C80.3983 9.16 80.7983 9.096 81.2463 9.096C81.4223 9.096 81.6143 9.112 81.8223 9.144C82.0463 9.16 82.2703 9.208 82.4943 9.288C82.7343 9.352 82.9503 9.448 83.1423 9.576C83.3343 9.688 83.4863 9.832 83.5983 10.008C83.7263 10.184 83.7903 10.4 83.7903 10.656C83.7903 11.312 83.6383 11.872 83.3343 12.336C83.0303 12.784 82.6463 13.008 82.1823 13.008C81.9103 13.008 81.7183 12.984 81.6063 12.936C81.4943 12.888 81.3983 12.84 81.3183 12.792C81.2543 12.744 81.1743 12.704 81.0783 12.672C80.9823 12.624 80.8063 12.6 80.5503 12.6C80.3103 12.6 80.0783 12.632 79.8543 12.696C79.6463 12.76 79.4463 12.864 79.2543 13.008C79.0783 13.136 78.9343 13.304 78.8223 13.512C78.7263 13.704 78.6783 13.92 78.6783 14.16V19.44C78.6783 19.744 78.6463 20.04 78.5823 20.328C78.5343 20.6 78.3823 20.816 78.1263 20.976C77.8703 21.136 77.4463 21.216 76.8543 21.216ZM90.4282 21.432C89.3082 21.432 88.3402 21.248 87.5242 20.88C86.7242 20.512 86.0682 20.032 85.5562 19.44C85.0442 18.832 84.6602 18.16 84.4042 17.424C84.1642 16.688 84.0442 15.952 84.0442 15.216C84.0442 14.016 84.3162 12.952 84.8602 12.024C85.4042 11.096 86.1562 10.368 87.1162 9.84C88.0762 9.296 89.1802 9.024 90.4282 9.024C91.3562 9.024 92.1562 9.176 92.8282 9.48C93.5162 9.768 94.0762 10.152 94.5082 10.632C94.9562 11.096 95.2842 11.6 95.4922 12.144C95.7162 12.688 95.8282 13.208 95.8282 13.704C95.8282 14.584 95.6122 15.24 95.1802 15.672C94.7642 16.088 94.2282 16.296 93.5722 16.296H87.8602C87.8922 16.712 88.0362 17.064 88.2922 17.352C88.5642 17.64 88.9002 17.864 89.3002 18.024C89.7002 18.184 90.1242 18.264 90.5722 18.264C90.9562 18.264 91.2922 18.248 91.5802 18.216C91.8682 18.168 92.1162 18.112 92.3242 18.048C92.5322 17.968 92.7242 17.896 92.9002 17.832C93.0762 17.752 93.2282 17.688 93.3562 17.64C93.5002 17.592 93.6362 17.56 93.7642 17.544C94.0042 17.528 94.2202 17.6 94.4122 17.76C94.6202 17.904 94.8042 18.128 94.9642 18.432C95.0762 18.608 95.1482 18.776 95.1802 18.936C95.2282 19.096 95.2522 19.256 95.2522 19.416C95.2522 19.8 95.0522 20.144 94.6522 20.448C94.2682 20.752 93.7162 20.992 92.9962 21.168C92.2922 21.344 91.4362 21.432 90.4282 21.432ZM87.8602 14.328H91.6522C91.9082 14.328 92.0922 14.288 92.2042 14.208C92.3322 14.112 92.3962 13.936 92.3962 13.68C92.3962 13.392 92.3082 13.144 92.1322 12.936C91.9562 12.712 91.7162 12.544 91.4122 12.432C91.1242 12.304 90.7882 12.24 90.4042 12.24C89.9082 12.24 89.4682 12.336 89.0842 12.528C88.7002 12.72 88.3962 12.976 88.1722 13.296C87.9642 13.616 87.8602 13.96 87.8602 14.328ZM101.975 21.216C101.319 21.216 100.735 21.176 100.223 21.096C99.7268 21.032 99.2948 20.904 98.9268 20.712C98.5748 20.52 98.2868 20.256 98.0628 19.92C97.8388 19.584 97.6708 19.152 97.5588 18.624C97.4628 18.08 97.4148 17.416 97.4148 16.632V5.544C97.4148 5.224 97.4388 4.928 97.4868 4.656C97.5508 4.384 97.7108 4.16 97.9668 3.984C98.2228 3.808 98.6388 3.72 99.2148 3.72C99.7908 3.72 100.199 3.808 100.439 3.984C100.695 4.16 100.855 4.384 100.919 4.656C100.983 4.928 101.015 5.224 101.015 5.544V16.464C101.015 16.72 101.023 16.936 101.039 17.112C101.071 17.272 101.119 17.4 101.183 17.496C101.263 17.592 101.367 17.656 101.495 17.688C101.623 17.72 101.791 17.736 101.999 17.736C102.191 17.736 102.383 17.76 102.575 17.808C102.783 17.856 102.959 18 103.103 18.24C103.247 18.48 103.319 18.88 103.319 19.44C103.319 20.016 103.247 20.432 103.103 20.688C102.959 20.944 102.783 21.096 102.575 21.144C102.383 21.192 102.183 21.216 101.975 21.216ZM106.798 26.064C106.142 25.776 105.758 25.456 105.646 25.104C105.55 24.752 105.638 24.28 105.91 23.688L111.934 10.224C112.206 9.6 112.502 9.232 112.822 9.12C113.158 8.992 113.654 9.056 114.31 9.312C114.95 9.616 115.318 9.936 115.414 10.272C115.526 10.608 115.454 11.056 115.198 11.616L109.15 25.176C108.878 25.8 108.582 26.176 108.262 26.304C107.942 26.432 107.454 26.352 106.798 26.064ZM108.886 20.472L103.246 11.88C102.894 11.352 102.75 10.912 102.814 10.56C102.894 10.208 103.214 9.848 103.774 9.48C104.398 9.096 104.878 8.952 105.214 9.048C105.566 9.128 105.918 9.44 106.27 9.984L110.422 16.344L108.886 20.472Z" fill="#4F46E5"/>
</svg>
