<svg width="25" height="25" viewBox="0 0 25 25" fill="none" xmlns="http://www.w3.org/2000/svg">
<path d="M5 16.9998C3.5 18.2598 3 21.9998 3 21.9998C3 21.9998 6.74 21.4998 8 19.9998C8.71 19.1598 8.7 17.8698 7.91 17.0898C7.52131 16.7188 7.00929 16.5045 6.47223 16.4879C5.93516 16.4712 5.41088 16.6536 5 16.9998Z" stroke="#F3F4F6" stroke-width="2" stroke-linecap="round" stroke-linejoin="round"/>
<path d="M12.5 15.4998L9.5 12.4998C10.0321 11.1192 10.7022 9.79582 11.5 8.54976C12.6652 6.68675 14.2876 5.15281 16.213 4.09385C18.1384 3.03489 20.3027 2.48613 22.5 2.49976C22.5 5.21976 21.72 9.99976 16.5 13.4998C15.2369 14.2985 13.8968 14.9685 12.5 15.4998Z" stroke="#F3F4F6" stroke-width="2" stroke-linecap="round" stroke-linejoin="round"/>
<path d="M9.5 12.5H4.5C4.5 12.5 5.05 9.47002 6.5 8.50002C8.12 7.42002 11.5 8.50002 11.5 8.50002" stroke="#F3F4F6" stroke-width="2" stroke-linecap="round" stroke-linejoin="round"/>
<path d="M12.5 15.5V20.5C12.5 20.5 15.53 19.95 16.5 18.5C17.58 16.88 16.5 13.5 16.5 13.5" stroke="#F3F4F6" stroke-width="2" stroke-linecap="round" stroke-linejoin="round"/>
</svg>
