<svg width="0" height="0" class="hidden">
  <symbol fill="none" xmlns="http://www.w3.org/2000/svg" viewBox="0 0 24 24" id="chart-bar-big">
    <path d="M3 3V19C3 19.5304 3.21071 20.0391 3.58579 20.4142C3.96086 20.7893 4.46957 21 5 21H21" stroke="#374151" stroke-width="2" stroke-linecap="round" stroke-linejoin="round"></path>
    <path d="M15 13H8C7.44772 13 7 13.4477 7 14V16C7 16.5523 7.44772 17 8 17H15C15.5523 17 16 16.5523 16 16V14C16 13.4477 15.5523 13 15 13Z" stroke="#374151" stroke-width="2" stroke-linecap="round" stroke-linejoin="round"></path>
    <path d="M18 5H8C7.44772 5 7 5.44772 7 6V8C7 8.55228 7.44772 9 8 9H18C18.5523 9 19 8.55228 19 8V6C19 5.44772 18.5523 5 18 5Z" stroke="#374151" stroke-width="2" stroke-linecap="round" stroke-linejoin="round"></path>
  </symbol>
  <symbol fill="none" xmlns="http://www.w3.org/2000/svg" viewBox="0 0 24 24" id="list-todo">
    <path d="M8 5H4C3.44772 5 3 5.44772 3 6V10C3 10.5523 3.44772 11 4 11H8C8.55228 11 9 10.5523 9 10V6C9 5.44772 8.55228 5 8 5Z" stroke="#374151" stroke-width="2" stroke-linecap="round" stroke-linejoin="round"></path>
    <path d="M3 17L5 19L9 15" stroke="#374151" stroke-width="2" stroke-linecap="round" stroke-linejoin="round"></path>
    <path d="M13 6H21" stroke="#374151" stroke-width="2" stroke-linecap="round" stroke-linejoin="round"></path>
    <path d="M13 12H21" stroke="#374151" stroke-width="2" stroke-linecap="round" stroke-linejoin="round"></path>
    <path d="M13 18H21" stroke="#374151" stroke-width="2" stroke-linecap="round" stroke-linejoin="round"></path>
  </symbol>
  <symbol fill="none" xmlns="http://www.w3.org/2000/svg" viewBox="0 0 24 24" id="presentation">
    <path d="M2 3H22" stroke="#374151" stroke-width="2" stroke-linecap="round" stroke-linejoin="round"></path>
    <path d="M21 3V14C21 14.5304 20.7893 15.0391 20.4142 15.4142C20.0391 15.7893 19.5304 16 19 16H5C4.46957 16 3.96086 15.7893 3.58579 15.4142C3.21071 15.0391 3 14.5304 3 14V3" stroke="#374151" stroke-width="2" stroke-linecap="round" stroke-linejoin="round"></path>
    <path d="M7 21L12 16L17 21" stroke="#374151" stroke-width="2" stroke-linecap="round" stroke-linejoin="round"></path>
  </symbol>
  <symbol fill="none" xmlns="http://www.w3.org/2000/svg" viewBox="0 0 24 24" id="rocket">
    <path d="M4.5 16.5001C3 17.7601 2.5 21.5001 2.5 21.5001C2.5 21.5001 6.24 21.0001 7.5 19.5001C8.21 18.6601 8.2 17.3701 7.41 16.5901C7.02131 16.2191 6.50929 16.0047 5.97223 15.9881C5.43516 15.9715 4.91088 16.1538 4.5 16.5001Z" stroke="#374151" stroke-width="2" stroke-linecap="round" stroke-linejoin="round"></path>
    <path d="M12 15L9 12C9.53214 10.6194 10.2022 9.29607 11 8.05C12.1652 6.18699 13.7876 4.65305 15.713 3.5941C17.6384 2.53514 19.8027 1.98637 22 2C22 4.72 21.22 9.5 16 13C14.7369 13.7987 13.3968 14.4687 12 15Z" stroke="#374151" stroke-width="2" stroke-linecap="round" stroke-linejoin="round"></path>
    <path d="M9 12H4C4 12 4.55 8.97002 6 8.00002C7.62 6.92002 11 8.00002 11 8.00002" stroke="#374151" stroke-width="2" stroke-linecap="round" stroke-linejoin="round"></path>
    <path d="M12 15V20C12 20 15.03 19.45 16 18C17.08 16.38 16 13 16 13" stroke="#374151" stroke-width="2" stroke-linecap="round" stroke-linejoin="round"></path>
  </symbol>
  <symbol fill="none" xmlns="http://www.w3.org/2000/svg" viewBox="0 0 24 24" id="settings">
    <path d="M12.22 2H11.78C11.2496 2 10.7409 2.21071 10.3658 2.58579C9.99072 2.96086 9.78 3.46957 9.78 4V4.18C9.77964 4.53073 9.68706 4.87519 9.51154 5.17884C9.33602 5.48248 9.08374 5.73464 8.78 5.91L8.35 6.16C8.04596 6.33554 7.70108 6.42795 7.35 6.42795C6.99893 6.42795 6.65404 6.33554 6.35 6.16L6.2 6.08C5.74107 5.81526 5.19584 5.74344 4.684 5.88031C4.17217 6.01717 3.73555 6.35154 3.47 6.81L3.25 7.19C2.98526 7.64893 2.91345 8.19416 3.05031 8.706C3.18717 9.21783 3.52154 9.65445 3.98 9.92L4.13 10.02C4.43228 10.1945 4.68362 10.4451 4.85905 10.7468C5.03448 11.0486 5.1279 11.391 5.13 11.74V12.25C5.1314 12.6024 5.03965 12.949 4.86405 13.2545C4.68844 13.5601 4.43521 13.8138 4.13 13.99L3.98 14.08C3.52154 14.3456 3.18717 14.7822 3.05031 15.294C2.91345 15.8058 2.98526 16.3511 3.25 16.81L3.47 17.19C3.73555 17.6485 4.17217 17.9828 4.684 18.1197C5.19584 18.2566 5.74107 18.1847 6.2 17.92L6.35 17.84C6.65404 17.6645 6.99893 17.5721 7.35 17.5721C7.70108 17.5721 8.04596 17.6645 8.35 17.84L8.78 18.09C9.08374 18.2654 9.33602 18.5175 9.51154 18.8212C9.68706 19.1248 9.77964 19.4693 9.78 19.82V20C9.78 20.5304 9.99072 21.0391 10.3658 21.4142C10.7409 21.7893 11.2496 22 11.78 22H12.22C12.7504 22 13.2591 21.7893 13.6342 21.4142C14.0093 21.0391 14.22 20.5304 14.22 20V19.82C14.2204 19.4693 14.3129 19.1248 14.4885 18.8212C14.664 18.5175 14.9163 18.2654 15.22 18.09L15.65 17.84C15.954 17.6645 16.2989 17.5721 16.65 17.5721C17.0011 17.5721 17.346 17.6645 17.65 17.84L17.8 17.92C18.2589 18.1847 18.8042 18.2566 19.316 18.1197C19.8278 17.9828 20.2645 17.6485 20.53 17.19L20.75 16.8C21.0147 16.3411 21.0866 15.7958 20.9497 15.284C20.8128 14.7722 20.4785 14.3356 20.02 14.07L19.87 13.99C19.5648 13.8138 19.3116 13.5601 19.136 13.2545C18.9604 12.949 18.8686 12.6024 18.87 12.25V11.75C18.8686 11.3976 18.9604 11.051 19.136 10.7455C19.3116 10.4399 19.5648 10.1862 19.87 10.01L20.02 9.92C20.4785 9.65445 20.8128 9.21783 20.9497 8.706C21.0866 8.19416 21.0147 7.64893 20.75 7.19L20.53 6.81C20.2645 6.35154 19.8278 6.01717 19.316 5.88031C18.8042 5.74344 18.2589 5.81526 17.8 6.08L17.65 6.16C17.346 6.33554 17.0011 6.42795 16.65 6.42795C16.2989 6.42795 15.954 6.33554 15.65 6.16L15.22 5.91C14.9163 5.73464 14.664 5.48248 14.4885 5.17884C14.3129 4.87519 14.2204 4.53073 14.22 4.18V4C14.22 3.46957 14.0093 2.96086 13.6342 2.58579C13.2591 2.21071 12.7504 2 12.22 2Z" stroke="#374151" stroke-width="2" stroke-linecap="round" stroke-linejoin="round"></path>
    <path d="M12 15C13.6569 15 15 13.6569 15 12C15 10.3431 13.6569 9 12 9C10.3431 9 9 10.3431 9 12C9 13.6569 10.3431 15 12 15Z" stroke="#374151" stroke-width="2" stroke-linecap="round" stroke-linejoin="round"></path>
  </symbol>
</svg>